<?xml version="1.0" encoding="utf-8"?>
<!-- Generator: Adobe Illustrator 22.0.1, SVG Export Plug-In . SVG Version: 6.00 Build 0)  -->
<svg version="1.0" id="ÉåÉCÉÑÅ_x5B__1" xmlns="http://www.w3.org/2000/svg" xmlns:xlink="http://www.w3.org/1999/xlink"
	 x="0px" y="0px" viewBox="0 0 759.2 553.2" enable-background="new 0 0 759.2 553.2" xml:space="preserve">
<g>
	<g>
		
			<rect x="32.6" y="375" fill="#FED98E" stroke="#32241A" stroke-width="6.5" stroke-linecap="round" stroke-linejoin="round" stroke-miterlimit="10" width="251.6" height="163.4"/>
		
			<path fill="#32241A" stroke="#32241A" stroke-width="6.5" stroke-linecap="round" stroke-linejoin="round" stroke-miterlimit="10" d="
			M121.2,537.4V462c0-3.8,3.1-7,7-7h42.6c3.8,0,7,3.1,7,7v75.4h15.6V462c0-12.5-10.1-22.6-22.6-22.6h-42.6
			c-12.5,0-22.6,10.1-22.6,22.6v75.4H121.2z"/>
		<g>
			<g>
				
					<rect x="207.1" y="496.5" fill="#CBA45C" stroke="#32241A" stroke-width="6.5" stroke-linecap="round" stroke-linejoin="round" stroke-miterlimit="10" width="49.3" height="34.5"/>
			</g>
			<g>
				
					<rect x="207.1" y="457.6" fill="#FFFFFF" stroke="#32241A" stroke-width="6.5" stroke-linecap="round" stroke-linejoin="round" stroke-miterlimit="10" width="49.3" height="38.8"/>
			</g>
		</g>
		
			<polygon fill="#CBA45C" stroke="#32241A" stroke-width="6.5" stroke-linecap="round" stroke-linejoin="round" stroke-miterlimit="10" points="
			229.8,529.9 66.2,529.9 61.6,487.1 234.4,487.1 		"/>
		
			<rect x="3.2" y="527.7" fill="#987B45" stroke="#32241A" stroke-width="6.5" stroke-linecap="round" stroke-linejoin="round" stroke-miterlimit="10" width="541.6" height="22.2"/>
	</g>
	<g>
		
			<path fill="#32241A" stroke="#32241A" stroke-width="6.5" stroke-linecap="round" stroke-linejoin="round" stroke-miterlimit="10" d="
			M541,42.1c0,21.5-17.4,38.9-38.9,38.9c-21.5,0-38.9-17.4-38.9-38.9c0-21.5,17.4-38.9,38.9-38.9C523.5,3.2,541,20.7,541,42.1z"/>
		
			<path fill="#FEF0CD" stroke="#32241A" stroke-width="6.5" stroke-linecap="round" stroke-linejoin="round" stroke-miterlimit="10" d="
			M383.4,387.8l-19.7,51.4c0,0-15.9,10.5-27.2,25.7C325.3,480,384.9,489,384.9,489s21.2-21.2,27.2-33.3c6-12.1,16.6-37.8,16.6-37.8
			L383.4,387.8z"/>
		
			<path fill="#FEF0CD" stroke="#32241A" stroke-width="6.5" stroke-linecap="round" stroke-linejoin="round" stroke-miterlimit="10" d="
			M328,450c2.8-8.2,13.5-9.2,15.5-0.5c1.9,8.7,0,18.4,8.7,23.7c8.7,5.3,1.9,13.5-3.4,16C343.5,491.6,318.8,477.1,328,450z"/>
		
			<path fill="#FEF0CD" stroke="#32241A" stroke-width="6.5" stroke-linecap="round" stroke-linejoin="round" stroke-miterlimit="10" d="
			M586.2,411.7l41.4-19.5l14.4,20.5l40.2-37.2c0,0-1.8-15.8,1.8-30.8c3.6-15,14.3,5.4,14.3,5.4s7.3-16.1,14.8-21.8
			c7.5-5.8,12.6,2.3,12.6,2.3l5.6-5.2l3.8,10.4l8.7-5.7l0.8,10.9l11.4,3.5c0,0-0.6,15.7-10.2,29.3c-9.6,13.6-27.1,28.6-27.1,28.6
			s-47.5,54.5-66.7,66.5C632.7,480.8,586.2,411.7,586.2,411.7z"/>
		
			<path fill="none" stroke="#32241A" stroke-width="6.5" stroke-linecap="round" stroke-linejoin="round" stroke-miterlimit="10" d="
			M698.2,350.1c0,0,13.9,3.9,15.9,13.5"/>
		
			<path fill="#FFFFFF" stroke="#32241A" stroke-width="6.5" stroke-linecap="round" stroke-linejoin="round" stroke-miterlimit="10" d="
			M455.2,308c-59.3,15.3-81.7,76.7-81.7,76.7l33.3,36.3l-7.6,128.9h202.6l-5.5-129.2l38.7-29c-10.7-30.6-54-71.8-96.5-84.3
			C478.8,289.8,478.2,302.1,455.2,308z"/>
		<g>
			
				<polygon fill="#FFFFFF" stroke="#32241A" stroke-width="6.5" stroke-linecap="round" stroke-linejoin="round" stroke-miterlimit="10" points="
				451.5,300.7 501.7,346.3 476.4,372.7 434.3,317.6 			"/>
			
				<polygon fill="#FFFFFF" stroke="#32241A" stroke-width="6.5" stroke-linecap="round" stroke-linejoin="round" stroke-miterlimit="10" points="
				550,300.7 499.8,346.3 525.1,372.7 567.3,317.6 			"/>
			
				<polygon fill="#FEF0CD" stroke="#32241A" stroke-width="6.5" stroke-linecap="round" stroke-linejoin="round" stroke-miterlimit="10" points="
				451.5,300.7 550,300.7 501.7,346.3 			"/>
		</g>
		<g>
			
				<path fill="#FEF0CD" stroke="#32241A" stroke-width="6.5" stroke-linecap="round" stroke-linejoin="round" stroke-miterlimit="10" d="
				M361.7,181.7c-4.2,72.9,55.1,136,132.4,141c77.3,5,143.4-50.1,147.6-123c4.2-72.9-55.1-136-132.4-141
				C432,53.8,365.9,108.8,361.7,181.7z"/>
			<path fill="#32241A" d="M536.3,198.3c-0.8,5.6,3.1,10.9,8.7,11.7c5.6,0.8,10.9-3.1,11.7-8.7c0.8-5.6-3.1-10.9-8.7-11.7
				C542.4,188.7,537.1,192.6,536.3,198.3z"/>
			<path fill="#32241A" d="M442.6,196.1c-0.8,5.6,3.1,10.9,8.7,11.7c5.7,0.8,10.9-3.1,11.7-8.7c0.8-5.7-3.1-10.9-8.7-11.7
				C448.7,186.6,443.5,190.5,442.6,196.1z"/>
			
				<path fill="none" stroke="#32241A" stroke-width="6.5" stroke-linecap="round" stroke-linejoin="round" stroke-miterlimit="10" d="
				M535.4,263.6c0,0-9.4,17.8-41.8,14.6c-19.6-1.9-27.6-17.8-27.6-17.8"/>
			<path fill="#FCA791" d="M562.6,234.4c0.5,7.6,11.3,13.1,24.2,12.3c12.8-0.8,22.9-7.7,22.4-15.3c-0.5-7.6-11.3-13.1-24.2-12.3
				C572.1,220,562.1,226.8,562.6,234.4z"/>
			<path fill="#FCA791" d="M392.2,234.4c0.5,7.6,11.3,13.1,24.1,12.3c12.8-0.8,22.9-7.7,22.4-15.3c-0.5-7.6-11.3-13.1-24.2-12.3
				C401.7,220,391.7,226.8,392.2,234.4z"/>
			
				<path fill="#32241A" stroke="#32241A" stroke-width="6.5" stroke-linecap="round" stroke-linejoin="round" stroke-miterlimit="10" d="
				M425.2,101.9c-38.6,27.2-62.7,101.9-62.7,101.9c-0.9-7.2-1.3-14.6-0.8-22.1c4.2-72.9,70.3-127.9,147.6-123
				c77.3,5,136.6,68.1,132.4,141c-0.1,2.3-0.5,4.5-0.8,6.7C640.9,206.4,541.7,97.8,425.2,101.9z"/>
		</g>
		
			<polygon fill="#572D28" stroke="#32241A" stroke-width="6.5" stroke-linecap="round" stroke-linejoin="round" stroke-miterlimit="10" points="
			399.2,549.9 601.8,549.9 601.1,534 400.1,534 		"/>
		
			<line fill="none" stroke="#32241A" stroke-width="6.5" stroke-linecap="round" stroke-linejoin="round" stroke-miterlimit="10" x1="501.7" y1="533.8" x2="501.7" y2="346.3"/>
	</g>
	<g>
		
			<path fill="none" stroke="#32241A" stroke-width="6.5" stroke-linecap="round" stroke-linejoin="round" stroke-miterlimit="10" d="
			M310.5,368.6c-7.4,0-14.2-3.7-16-11c-1.3-5.3-1.1-12.6,3.4-16.2c5.6-4.6,16.1-6.1,18.4,1.9c0.2-7.8-1-12.4,4-19
			c6-7.8,16.8-9.5,25.7-7c10.1,2.8,14.4,8.7,16.6,19.1c1.5,7.3,0.2,10.3-5.7,14c3.6,0.6,6.3,2.8,7.6,6.2"/>
		
			<path fill="none" stroke="#32241A" stroke-width="6.5" stroke-linecap="round" stroke-linejoin="round" stroke-miterlimit="10" d="
			M442.8,374.1c-0.4-11.5-12.5-9.4-12.5-9.4s17.4-6.2,9.9-15.8c-7.5-9.6-18.9-2.6-18.9-2.6s9.7-22.1-13.8-27.3
			c-23.5-5.2-27.4,20.4-27.4,20.4"/>
		<g>
			<g>
				
					<path fill="#FFFFFF" stroke="#32241A" stroke-width="6.5" stroke-linecap="round" stroke-linejoin="round" stroke-miterlimit="10" d="
					M452.2,480.3c-18.9,3.8-46,6.2-76.2,6.2c-30.8,0-58.4-2.5-77.3-6.4v-16.3h153.6V480.3z"/>
				
					<path fill="#FFFFFF" stroke="#32241A" stroke-width="6.5" stroke-linecap="round" stroke-linejoin="round" stroke-miterlimit="10" d="
					M272.6,458.5c0,10.4,46.3,18.9,103.3,18.9c57.1,0,103.3-8.5,103.3-18.9c0-10.5-46.3-19-103.3-19
					C318.9,439.5,272.6,448,272.6,458.5z"/>
			</g>
			
				<path fill="#FEF0CD" stroke="#32241A" stroke-width="6.5" stroke-linecap="round" stroke-linejoin="round" stroke-miterlimit="10" d="
				M377.3,501.8c0,0-17.5,2.4-20-0.6c-2.5-2.9-5.3,0.2-12.7-3c-7.4-3.2-10.1-1.4-14.2-5c-2.2-1.9-4.3-7.8-5.1-13.2
				c-0.7-4.8-0.5-9.3,1.3-10.8c3.9-3.3,19.4,2.6,19.4,2.6s8.6-1.5,13.2-1.5c4.6,0,7.5,5.6,7.5,5.6s2.3-2.1,6.2-2.3
				c3.9-0.1,9.2,5.8,9.2,5.8s9.4-2.2,12.2-2.4c2.8-0.2,9.8,10.6,6.2,14.2C397.1,494.9,385.7,502.9,377.3,501.8z"/>
			<g>
				
					<path fill="#FFFFFF" stroke="#32241A" stroke-width="5.8772" stroke-linecap="round" stroke-linejoin="round" stroke-miterlimit="10" d="
					M460,411.1c-1.6,0-3.1,0.3-4.5,0.7v8.4c0.6-0.2,1.1-0.3,1.8-0.3c3.2,0,5.9,2.6,5.9,5.7c0,3.2-2.6,5.7-5.9,5.7
					c-0.6,0-5.8-0.1-6.3-0.3v8.4c1.4,0.4,7.5,0.7,9,0.7c8.2,0,14.9-6.5,14.9-14.6C475,417.7,468.3,411.1,460,411.1z"/>
				<g>
					
						<path fill="#CBA45C" stroke="#32241A" stroke-width="6.5" stroke-linecap="round" stroke-linejoin="round" stroke-miterlimit="10" d="
						M460.6,454.8c0,5.5-19.5,9.9-43.6,9.9c-24.1,0-43.6-4.4-43.6-9.9c0-5.5,19.5-9.9,43.6-9.9C441.1,444.9,460.6,449.3,460.6,454.8
						z"/>
					<g>
						
							<path fill="#D9D9D9" stroke="#32241A" stroke-width="6.5" stroke-linecap="round" stroke-linejoin="round" stroke-miterlimit="10" d="
							M455.5,406.8c0,6.8-17.2,12.4-38.5,12.4c-21.2,0-38.5-5.5-38.5-12.4c0-6.8,17.2-12.4,38.5-12.4
							C438.3,394.4,455.5,399.9,455.5,406.8z"/>
						
							<path fill="#FFFFFF" stroke="#32241A" stroke-width="6.5" stroke-linecap="round" stroke-linejoin="round" stroke-miterlimit="10" d="
							M455.5,406.8c0,6.8-17.2,12.4-38.5,12.4c-21.2,0-38.5-5.5-38.5-12.4c0,0-7.7,49.9,38.5,49.9
							C463.3,456.7,455.5,406.8,455.5,406.8z"/>
						
							<path fill="#32241A" stroke="#32241A" stroke-width="6.5" stroke-linecap="round" stroke-linejoin="round" stroke-miterlimit="10" d="
							M417.1,419.1c12.9,0,24.3-2.1,31.3-5.2c-2.8-6.3-15.7-8.9-31.3-8.9c-15.6,0-28.5,2.5-31.3,8.9
							C392.7,417.1,404.1,419.1,417.1,419.1z"/>
					</g>
				</g>
			</g>
			<g>
				
					<path fill="#FFFFFF" stroke="#32241A" stroke-width="5.8772" stroke-linecap="round" stroke-linejoin="round" stroke-miterlimit="10" d="
					M289.4,404.1c1.6,0,3.1,0.3,4.5,0.7v8.4c-0.6-0.2-1.1-0.3-1.8-0.3c-3.2,0-5.9,2.6-5.9,5.7c0,3.2,2.6,5.7,5.9,5.7
					c0.6,0,5.8-0.1,6.3-0.3v8.4c-1.4,0.4-7.5,0.7-9,0.7c-8.2,0-14.9-6.5-14.9-14.6C274.5,410.6,281.2,404.1,289.4,404.1z"/>
				<g>
					
						<path fill="#CBA45C" stroke="#32241A" stroke-width="6.5" stroke-linecap="round" stroke-linejoin="round" stroke-miterlimit="10" d="
						M288.8,447.7c0,5.5,19.5,9.9,43.6,9.9c24.1,0,43.6-4.4,43.6-9.9c0-5.5-19.5-9.9-43.6-9.9C308.3,437.8,288.8,442.3,288.8,447.7z
						"/>
					<g>
						
							<path fill="#D9D9D9" stroke="#32241A" stroke-width="6.5" stroke-linecap="round" stroke-linejoin="round" stroke-miterlimit="10" d="
							M293.9,399.7c0,6.8,17.2,12.4,38.5,12.4c21.2,0,38.5-5.5,38.5-12.4c0-6.8-17.2-12.4-38.5-12.4
							C311.2,387.3,293.9,392.9,293.9,399.7z"/>
						
							<path fill="#FFFFFF" stroke="#32241A" stroke-width="6.5" stroke-linecap="round" stroke-linejoin="round" stroke-miterlimit="10" d="
							M293.9,399.7c0,6.8,17.2,12.4,38.5,12.4c21.2,0,38.5-5.5,38.5-12.4c0,0,7.7,49.9-38.5,49.9
							C286.2,449.6,293.9,399.7,293.9,399.7z"/>
						
							<path fill="#32241A" stroke="#32241A" stroke-width="6.5" stroke-linecap="round" stroke-linejoin="round" stroke-miterlimit="10" d="
							M332.4,412.1c-12.9,0-24.3-2.1-31.3-5.2c2.8-6.3,15.7-8.9,31.3-8.9c15.6,0,28.5,2.5,31.3,8.9
							C356.7,410,345.3,412.1,332.4,412.1z"/>
					</g>
				</g>
			</g>
		</g>
	</g>
</g>
</svg>
